# xmcd
#
# Track frame offsets:
#	150
#	55905
#	85342
#	100407
#	132447
#	157225
#
# Disc length: 2363 seconds
# Revision: 0
# Processed by: cddbd v1.5.2PL0 Copyright (c) Steve Scherf et al.
# Submitted via: dBpowerAMP V12.0
#
DISCID=51093906
DTITLE=Various Artist - Montreux Festival [dBP]
DYEAR=1974
DGENRE=Blues
TTITLE0=Chico Hamilton - In View
TTITLE1=Little Milton - Let Me Down Easy
TTITLE2=Little Milton - We're Gonna Make It
TTITLE3=Albert King - Don't Make No Sense
TTITLE4=Albert King - Stormy Monday
TTITLE5=Albert King - For the Love of a Woman
EXTD=
EXTT0=
EXTT1=
EXTT2=
EXTT3=
EXTT4=
EXTT5=
PLAYORDER=
